<svg width="20" height="20" viewBox="0 0 20 20" fill="none" xmlns="http://www.w3.org/2000/svg">
<path fill-rule="evenodd" clip-rule="evenodd" d="M3.117 5.75203C3.31536 5.73886 3.51084 5.80498 3.66047 5.93586C3.8101 6.06675 3.90165 6.25168 3.915 6.45003L4.375 13.35C4.465 14.697 4.529 15.635 4.669 16.34C4.806 17.025 4.996 17.387 5.269 17.643C5.543 17.899 5.917 18.065 6.609 18.155C7.323 18.248 8.263 18.25 9.613 18.25H10.387C11.737 18.25 12.677 18.248 13.391 18.155C14.083 18.065 14.457 17.899 14.731 17.643C15.004 17.387 15.194 17.025 15.331 16.341C15.471 15.635 15.535 14.697 15.625 13.349L16.085 6.45003C16.0916 6.35174 16.1174 6.2557 16.1611 6.1674C16.2048 6.0791 16.2654 6.00027 16.3396 5.93541C16.4137 5.87055 16.4999 5.82092 16.5933 5.78937C16.6866 5.75782 16.7852 5.74497 16.8835 5.75153C16.9818 5.7581 17.0778 5.78396 17.1661 5.82764C17.2544 5.87132 17.3333 5.93197 17.3981 6.00612C17.463 6.08027 17.5126 6.16646 17.5442 6.25979C17.5757 6.35311 17.5886 6.45174 17.582 6.55003L17.118 13.502C17.033 14.784 16.964 15.821 16.802 16.634C16.633 17.479 16.347 18.185 15.755 18.738C15.163 19.291 14.44 19.531 13.585 19.642C12.763 19.75 11.725 19.75 10.44 19.75H9.56C8.275 19.75 7.237 19.75 6.415 19.642C5.56 19.531 4.836 19.292 4.245 18.738C3.653 18.185 3.367 17.478 3.198 16.634C3.036 15.82 2.968 14.784 2.882 13.502L2.418 6.55003C2.41148 6.45173 2.42439 6.35311 2.456 6.25981C2.4876 6.1665 2.53728 6.08033 2.60219 6.00623C2.6671 5.93212 2.74597 5.87153 2.83431 5.82792C2.92264 5.7843 3.0187 5.75852 3.117 5.75203ZM8.355 0.250033H8.309C8.093 0.250033 7.904 0.250033 7.726 0.278033C7.37929 0.333576 7.05039 0.469494 6.76561 0.674914C6.48084 0.880334 6.24809 1.14955 6.086 1.46103C6.002 1.62103 5.943 1.80003 5.875 2.00503L5.86 2.04903L5.763 2.33903L5.734 2.42503C5.64346 2.67636 5.47479 2.89206 5.25272 3.04053C5.03064 3.189 4.76685 3.26242 4.5 3.25003H1.5C1.30109 3.25003 1.11032 3.32905 0.96967 3.4697C0.829018 3.61035 0.75 3.80112 0.75 4.00003C0.75 4.19895 0.829018 4.38971 0.96967 4.53036C1.11032 4.67101 1.30109 4.75003 1.5 4.75003H18.501C18.6999 4.75003 18.8907 4.67101 19.0313 4.53036C19.172 4.38971 19.251 4.19895 19.251 4.00003C19.251 3.80112 19.172 3.61035 19.0313 3.4697C18.8907 3.32905 18.6999 3.25003 18.501 3.25003H15.41C15.1429 3.24363 14.8849 3.1518 14.6738 2.98803C14.4627 2.82426 14.3096 2.59716 14.237 2.34003L14.14 2.04903L14.126 2.00503C14.057 1.80003 13.998 1.62103 13.915 1.46103C13.7528 1.14943 13.5199 0.880135 13.2349 0.674708C12.95 0.469281 12.6209 0.33343 12.274 0.278033C12.0806 0.254515 11.8858 0.245156 11.691 0.250033H8.355ZM7.145 2.93503C7.105 3.04437 7.05933 3.14937 7.008 3.25003H12.992C12.9407 3.14804 12.8953 3.0432 12.856 2.93603L12.816 2.82203L12.717 2.52203C12.6807 2.3966 12.6363 2.27367 12.584 2.15403C12.53 2.05004 12.4524 1.96014 12.3574 1.89155C12.2624 1.82295 12.1527 1.77757 12.037 1.75903C11.9067 1.74749 11.7757 1.74448 11.645 1.75003H8.355C8.067 1.75003 8.007 1.75203 7.963 1.76003C7.8474 1.77846 7.73772 1.8237 7.64274 1.89211C7.54775 1.96053 7.4701 2.05023 7.416 2.15403C7.396 2.19403 7.374 2.24903 7.283 2.52303L7.183 2.82303L7.145 2.93503Z" fill="#3F3F3F"/>
</svg>
