<svg width="13" height="13" viewBox="0 0 13 13" fill="none" xmlns="http://www.w3.org/2000/svg">
<path d="M6.5 1.84615C5.88885 1.84615 5.28368 1.96653 4.71905 2.20041C4.15442 2.43428 3.64138 2.77708 3.20923 3.20923C2.77708 3.64138 2.43428 4.15442 2.20041 4.71905C1.96653 5.28368 1.84615 5.88885 1.84615 6.5C1.84615 7.11115 1.96653 7.71632 2.20041 8.28095C2.43428 8.84558 2.77708 9.35862 3.20923 9.79077L3.56279 9.43721L3.20923 9.79077C3.64138 10.2229 4.15442 10.5657 4.71905 10.7996C5.28368 11.0335 5.88885 11.1538 6.5 11.1538C7.73428 11.1538 8.918 10.6635 9.79077 9.79077C10.6635 8.918 11.1538 7.73428 11.1538 6.5C11.1538 5.26572 10.6635 4.082 9.79077 3.20923C8.918 2.33647 7.73428 1.84615 6.5 1.84615ZM1 6.5C1 5.04131 1.57946 3.64236 2.61091 2.61091C3.64236 1.57946 5.04131 1 6.5 1C7.95869 1 9.35764 1.57946 10.3891 2.61091C11.4205 3.64236 12 5.04131 12 6.5C12 7.95869 11.4205 9.35764 10.3891 10.3891C9.35764 11.4205 7.95869 12 6.5 12C5.04131 12 3.64236 11.4205 2.61091 10.3891C1.57946 9.35764 1 7.95869 1 6.5Z" fill="#3F3F3F" stroke="#3F3F3F"/>
</svg>
