<svg width="259" height="266" viewBox="0 0 259 266" fill="none" xmlns="http://www.w3.org/2000/svg">
<path d="M48.6224 218.47C83.4217 253.324 128.652 263.767 150.887 265.909C157.421 266.661 161.066 262.634 161.565 258.484C162.069 254.081 159.303 249.298 153.026 248.417C132.924 245.647 91.339 236.59 61.187 206.015C11.9362 156.563 2.64135 81.819 42.8439 41.5532C75.5099 8.96472 129.907 13.1148 169.986 34.7563L183.049 22.0484C134.302 -7.27046 68.7237 -9.65956 30.2793 28.9688C-15.4498 74.8986 -9.41942 160.337 48.6224 218.47ZM232.804 40.168L242.849 30.1016C247.62 25.3234 247.877 18.2742 242.978 13.7429L239.708 10.7257C235.441 6.6991 228.778 6.82258 224.131 11.225L214.209 21.4203L232.804 40.168ZM110.813 162.093L223.627 49.2252L204.909 30.6062L92.2181 143.351L81.7922 167.381C80.7844 170.023 83.4217 172.669 86.1877 171.784L110.813 162.093ZM94.3568 180.846C135.433 221.992 201.515 238.227 238.454 201.355C268.606 171.032 264.709 117.172 232.423 70.8721L219.612 83.7034C245.234 121.704 250.262 164.364 225.889 188.77C196.246 218.47 147.242 204.377 113.574 172.541L94.3568 180.846Z" fill="black"/>
</svg>
